<svg xmlns="http://www.w3.org/2000/svg" xmlns:xlink="http://www.w3.org/1999/xlink"
    viewBox="480.6965 295.6713 355.9403 69.6364" width="417" height="81.58216082865582"
    x="41.5px" y="209.2089px" preserveAspectRatio="none">
    <defs />
    <style>.aIptOCySncolors-04915b110-3e7a-4cbc-a09f-966afae494bc
        {fill:#3B82F6;fill-opacity:1;}.aIptOCySncolors-34915b110-3e7a-4cbc-a09f-966afae494bc
        {fill:#270949;fill-opacity:1;}.aIptOCySncolors-44915b110-3e7a-4cbc-a09f-966afae494bc
        {fill:#6B7ACC;fill-opacity:1;}.aIptOCySncolors-54915b110-3e7a-4cbc-a09f-966afae494bc
        {fill:#987FC6;fill-opacity:1;}.aIptOCySncolors-64915b110-3e7a-4cbc-a09f-966afae494bc
        {fill:#BFA0E9;fill-opacity:1;}.aIptOCySncolors-74915b110-3e7a-4cbc-a09f-966afae494bc
        {fill:#BDBBF1;fill-opacity:1;}.companyName4915b110-3e7a-4cbc-a09f-966afae494bc
        {fill:#270949;fill-opacity:1;}.icon24915b110-3e7a-4cbc-a09f-966afae494bc
        {fill:#F95B3D;fill-opacity:1;}.icon3-str4915b110-3e7a-4cbc-a09f-966afae494bc
        {stroke:#FEB7C7;stroke-opacity:1;}.icon34915b110-3e7a-4cbc-a09f-966afae494bc
        {fill:#FEB7C7;fill-opacity:1;}.shapeStroke-str4915b110-3e7a-4cbc-a09f-966afae494bc
        {stroke:#4654A3;stroke-opacity:1;}</style>
    <g opacity="1" transform="rotate(0 480.6965 311.146)">
        <svg width="38.6869" height="38.6869" x="480.6965" y="311.146" version="1.1"
            preserveAspectRatio="none"
            viewBox="27.200000762939453 27.200000762939453 45.499996185302734 45.499996185302734">
            <g transform="matrix(1 0 0 1 0 0)"
                class="aIptOCySncolors-04915b110-3e7a-4cbc-a09f-966afae494bc">
                <g>
                    <path
                        d="M29.2,27.2h-2v2v41.5v2h45.5V27.2h-2H29.2z M34.1,68.8l34.7-34.7v34.7H34.1z" />
                </g>
            </g>
        </svg>
    </g>
    <g opacity="1" transform="rotate(0 548.7854 311.146)">
        <svg width="287.8514" height="38.6869" x="548.7854" y="311.146" version="1.1"
            preserveAspectRatio="none" viewBox="1.12 -29.68 224.4 30.16">
            <g transform="matrix(1 0 0 1 0 0)"
                class="companyName4915b110-3e7a-4cbc-a09f-966afae494bc">
                <path id="id-4915b110-3e7a-4cbc-a09f-966afae494bcD6z1nYkh9"
                    d="M12.52 0.48Q9.20 0.48 6.10-0.42Q3-1.32 1.12-2.76L1.12-2.76L3.32-7.64Q5.12-6.32 7.60-5.52Q10.08-4.72 12.56-4.72L12.56-4.72Q15.32-4.72 16.64-5.54Q17.96-6.36 17.96-7.72L17.96-7.72Q17.96-8.72 17.18-9.38Q16.40-10.04 15.18-10.44Q13.96-10.84 11.88-11.32L11.88-11.32Q8.68-12.08 6.64-12.84Q4.60-13.60 3.14-15.28Q1.68-16.96 1.68-19.76L1.68-19.76Q1.68-22.20 3-24.18Q4.32-26.16 6.98-27.32Q9.64-28.48 13.48-28.48L13.48-28.48Q16.16-28.48 18.72-27.84Q21.28-27.20 23.20-26L23.20-26L21.20-21.08Q17.32-23.28 13.44-23.28L13.44-23.28Q10.72-23.28 9.42-22.40Q8.12-21.52 8.12-20.08L8.12-20.08Q8.12-18.64 9.62-17.94Q11.12-17.24 14.20-16.56L14.20-16.56Q17.40-15.80 19.44-15.04Q21.48-14.28 22.94-12.64Q24.40-11 24.40-8.20L24.40-8.20Q24.40-5.80 23.06-3.82Q21.72-1.84 19.04-0.68Q16.36 0.48 12.52 0.48L12.52 0.48Z M38.80 0.32Q35.36 0.32 32.62-1.10Q29.88-2.52 28.34-5.04Q26.80-7.56 26.80-10.76L26.80-10.76Q26.80-13.96 28.34-16.48Q29.88-19 32.62-20.42Q35.36-21.84 38.80-21.84L38.80-21.84Q42.20-21.84 44.74-20.42Q47.28-19 48.44-16.36L48.44-16.36L43.60-13.76Q41.92-16.72 38.76-16.72L38.76-16.72Q36.32-16.72 34.72-15.12Q33.12-13.52 33.12-10.76L33.12-10.76Q33.12-8 34.72-6.40Q36.32-4.80 38.76-4.80L38.76-4.80Q41.96-4.80 43.60-7.76L43.60-7.76L48.44-5.12Q47.28-2.56 44.74-1.12Q42.20 0.32 38.80 0.32L38.80 0.32Z M58-18.68Q59.12-20.24 61.02-21.04Q62.92-21.84 65.40-21.84L65.40-21.84L65.40-16.08Q64.36-16.16 64-16.16L64-16.16Q61.32-16.16 59.80-14.66Q58.28-13.16 58.28-10.16L58.28-10.16L58.28 0L52.04 0L52.04-21.52L58-21.52L58-18.68Z M84.72-21.52L90.96-21.52L90.96 0L85.04 0L85.04-2.56Q83.80-1.16 82.08-0.42Q80.36 0.32 78.36 0.32L78.36 0.32Q74.12 0.32 71.64-2.12Q69.16-4.56 69.16-9.36L69.16-9.36L69.16-21.52L75.40-21.52L75.40-10.28Q75.40-5.08 79.76-5.08L79.76-5.08Q82-5.08 83.36-6.54Q84.72-8 84.72-10.88L84.72-10.88L84.72-21.52Z M124.32-21.84Q128.36-21.84 130.74-19.46Q133.12-17.08 133.12-12.32L133.12-12.32L133.12 0L126.88 0L126.88-11.36Q126.88-13.92 125.82-15.18Q124.76-16.44 122.80-16.44L122.80-16.44Q120.60-16.44 119.32-15.02Q118.04-13.60 118.04-10.80L118.04-10.80L118.04 0L111.80 0L111.80-11.36Q111.80-16.44 107.72-16.44L107.72-16.44Q105.56-16.44 104.28-15.02Q103.00-13.60 103.00-10.80L103.00-10.80L103.00 0L96.76 0L96.76-21.52L102.72-21.52L102.72-19.04Q103.92-20.40 105.66-21.12Q107.40-21.84 109.48-21.84L109.48-21.84Q111.76-21.84 113.60-20.94Q115.44-20.04 116.56-18.32L116.56-18.32Q117.88-20 119.90-20.92Q121.92-21.84 124.32-21.84L124.32-21.84Z M151.44-21.84Q154.44-21.84 156.90-20.46Q159.36-19.08 160.76-16.58Q162.16-14.08 162.16-10.76L162.16-10.76Q162.16-7.44 160.76-4.94Q159.36-2.44 156.90-1.06Q154.44 0.32 151.44 0.32L151.44 0.32Q147 0.32 144.68-2.48L144.68-2.48L144.68 0L138.72 0L138.72-29.68L144.96-29.68L144.96-19.24Q147.32-21.84 151.44-21.84L151.44-21.84ZM150.36-4.80Q152.76-4.80 154.30-6.42Q155.84-8.04 155.84-10.76L155.84-10.76Q155.84-13.48 154.30-15.10Q152.76-16.72 150.36-16.72L150.36-16.72Q147.96-16.72 146.42-15.10Q144.88-13.48 144.88-10.76L144.88-10.76Q144.88-8.04 146.42-6.42Q147.96-4.80 150.36-4.80L150.36-4.80Z M166.32 0L166.32-29.68L172.56-29.68L172.56 0L166.32 0Z M199.44-10.68Q199.44-10.56 199.32-9L199.32-9L183.04-9Q183.48-7 185.12-5.84Q186.76-4.68 189.20-4.68L189.20-4.68Q190.88-4.68 192.18-5.18Q193.48-5.68 194.60-6.76L194.60-6.76L197.92-3.16Q194.88 0.32 189.04 0.32L189.04 0.32Q185.40 0.32 182.60-1.10Q179.80-2.52 178.28-5.04Q176.76-7.56 176.76-10.76L176.76-10.76Q176.76-13.92 178.26-16.46Q179.76-19 182.38-20.42Q185-21.84 188.24-21.84L188.24-21.84Q191.40-21.84 193.96-20.48Q196.52-19.12 197.98-16.58Q199.44-14.04 199.44-10.68L199.44-10.68ZM188.28-17.12Q186.16-17.12 184.72-15.92Q183.28-14.72 182.96-12.64L182.96-12.64L193.56-12.64Q193.24-14.68 191.80-15.90Q190.36-17.12 188.28-17.12L188.28-17.12Z M219.28-29.68L225.52-29.68L225.52 0L219.56 0L219.56-2.48Q217.24 0.32 212.84 0.32L212.84 0.32Q209.80 0.32 207.34-1.04Q204.88-2.40 203.48-4.92Q202.08-7.44 202.08-10.76L202.08-10.76Q202.08-14.08 203.48-16.60Q204.88-19.12 207.34-20.48Q209.80-21.84 212.84-21.84L212.84-21.84Q216.96-21.84 219.28-19.24L219.28-19.24L219.28-29.68ZM213.92-4.80Q216.28-4.80 217.84-6.42Q219.40-8.04 219.40-10.76L219.40-10.76Q219.40-13.48 217.84-15.10Q216.28-16.72 213.92-16.72L213.92-16.72Q211.52-16.72 209.96-15.10Q208.40-13.48 208.40-10.76L208.40-10.76Q208.40-8.04 209.96-6.42Q211.52-4.80 213.92-4.80L213.92-4.80Z" />
            </g>
        </svg>
    </g>
    <g opacity="1" transform="rotate(0 533.3107 295.6713)">
        <svg width="3.0949" height="69.6364" x="533.3107" y="295.6713" version="1.1"
            preserveAspectRatio="none" viewBox="0 0 3.0949 69.6364">
            <defs>
                <rect x="0" y="0" width="3.0949" height="69.6364" rx="0px" ry="0px"
                    id="id-4915b110-3e7a-4cbc-a09f-966afae494bctBXipXk0b1733943493629" />
            </defs>
            <use
                class="companyName4915b110-3e7a-4cbc-a09f-966afae494bc shapeStroke-str4915b110-3e7a-4cbc-a09f-966afae494bc"
                style="stroke-width:0;"
                xlink:href="#id-4915b110-3e7a-4cbc-a09f-966afae494bctBXipXk0b1733943493629" />
        </svg>
    </g>
</svg>